<?xml version="1.0" standalone="no"?>
<!DOCTYPE svg PUBLIC "-//W3C//DTD SVG 20010904//EN"
 "http://www.w3.org/TR/2001/REC-SVG-20010904/DTD/svg10.dtd">
<svg version="1.0" xmlns="http://www.w3.org/2000/svg"
 width="200.000000pt" height="200.000000pt" viewBox="0 0 200.000000 200.000000"
 preserveAspectRatio="xMidYMid meet">

<g transform="translate(0.000000,200.000000) scale(0.100000,-0.100000)"
fill="#000000" stroke="none">
<path d="M925 1980 c-222 -33 -431 -182 -456 -325 -4 -22 -16 -86 -27 -141
-18 -86 -21 -127 -17 -265 2 -90 11 -202 19 -249 8 -47 20 -112 25 -144 6 -32
15 -73 20 -90 5 -17 15 -74 21 -126 36 -304 171 -553 333 -615 63 -24 233 -18
292 10 116 56 205 156 286 320 48 99 62 149 98 340 10 55 26 124 35 154 9 30
16 72 16 93 0 22 5 49 12 61 6 12 13 58 15 102 2 44 8 96 13 115 20 74 4 246
-31 337 -17 43 -39 132 -39 155 0 36 -96 119 -196 170 -148 77 -308 114 -419
98z m425 -410 c48 -13 104 -74 124 -135 10 -27 20 -92 23 -144 l6 -94 -29 7
c-16 5 -68 10 -115 13 -71 4 -102 1 -183 -21 -117 -31 -250 -35 -348 -10 -49
13 -94 15 -202 12 l-138 -5 7 111 c8 130 29 183 88 230 l39 31 251 5 c139 3
295 7 347 8 52 1 111 -3 130 -8z m119 -415 c37 -18 41 -31 41 -118 0 -160 -21
-180 -183 -179 -62 0 -124 5 -139 11 -39 15 -77 78 -89 150 -10 57 -10 65 8
89 31 41 102 60 226 61 77 1 116 -3 136 -14z m-629 -17 c45 -23 45 -24 48 -80
4 -68 -25 -137 -72 -172 -35 -27 -136 -40 -224 -29 -69 8 -89 35 -98 131 -14
153 6 171 186 172 100 0 122 -3 160 -22z m178 -36 c6 -5 15 -28 18 -53 11 -80
80 -188 131 -206 97 -35 167 -40 258 -18 89 22 89 22 82 -30 -16 -113 -93
-299 -146 -349 l-30 -29 -11 27 c-5 15 -10 34 -10 42 0 37 -145 105 -256 121
-94 13 -258 -40 -326 -105 -15 -14 -31 -41 -34 -59 -8 -42 -21 -38 -56 14 -47
69 -144 351 -126 368 2 2 20 0 39 -5 44 -13 174 -13 220 0 67 19 102 51 141
130 21 41 38 87 38 102 0 43 36 70 68 50z m75 -616 c52 -13 107 -51 133 -91
21 -32 5 -82 -41 -130 -46 -50 -55 -46 -55 29 0 44 -5 67 -15 76 -8 6 -49 14
-92 16 -94 6 -127 -7 -131 -51 -4 -46 -32 -103 -53 -108 -28 -7 -69 56 -69
106 0 119 163 196 323 153z"/>
</g>
</svg>
