<svg width="445" height="40" viewBox="0 0 445 40" fill="none" xmlns="http://www.w3.org/2000/svg">
<path d="M31.072 15.24C30.048 12.424 28.288 10.152 25.792 8.424C23.328 6.664 20.4 5.784 17.008 5.784C14.192 5.784 11.632 6.456 9.32801 7.8C7.02401 9.112 5.20001 11.016 3.85601 13.512C2.544 15.976 1.888 18.856 1.888 22.152C1.888 25.448 2.544 28.344 3.85601 30.84C5.20001 33.304 7.02401 35.208 9.32801 36.552C11.632 37.864 14.192 38.52 17.008 38.52C19.76 38.52 22.272 37.88 24.544 36.6C26.848 35.32 28.688 33.48 30.064 31.08C31.44 28.648 32.16 25.832 32.224 22.632H16.288V21.768H33.136V22.152C33.136 25.48 32.448 28.456 31.072 31.08C29.696 33.704 27.776 35.752 25.312 37.224C22.88 38.664 20.112 39.384 17.008 39.384C13.904 39.384 11.12 38.664 8.65601 37.224C6.22401 35.752 4.32001 33.704 2.94401 31.08C1.568 28.456 0.880005 25.48 0.880005 22.152C0.880005 18.824 1.568 15.848 2.94401 13.224C4.32001 10.6 6.22401 8.568 8.65601 7.128C11.12 5.656 13.904 4.92 17.008 4.92C20.656 4.92 23.776 5.848 26.368 7.704C28.96 9.56 30.848 12.072 32.032 15.24H31.072Z" fill="#0D0D0D"/>
<path d="M61.4076 13.08V39H60.4476V31.944C59.8716 34.408 58.6556 36.28 56.7996 37.56C54.9756 38.84 52.7996 39.48 50.2716 39.48C47.2316 39.48 44.7356 38.536 42.7836 36.648C40.8316 34.76 39.8556 31.912 39.8556 28.104V13.08H40.7676V28.2C40.7676 31.592 41.6156 34.184 43.3116 35.976C45.0076 37.736 47.3276 38.616 50.2716 38.616C53.3436 38.616 55.8076 37.624 57.6636 35.64C59.5196 33.624 60.4476 30.664 60.4476 26.76V13.08H61.4076Z" fill="#0D0D0D"/>
<path d="M70.06 6.456C69.708 6.456 69.404 6.344 69.148 6.12C68.924 5.864 68.812 5.544 68.812 5.16C68.812 4.776 68.924 4.472 69.148 4.248C69.404 3.992 69.708 3.864 70.06 3.864C70.412 3.864 70.7 3.992 70.924 4.248C71.18 4.472 71.308 4.776 71.308 5.16C71.308 5.544 71.18 5.864 70.924 6.12C70.7 6.344 70.412 6.456 70.06 6.456ZM70.54 13.08V39H69.58V13.08H70.54Z" fill="#0D0D0D"/>
<path d="M79.6806 3.48V39H78.7206V3.48H79.6806Z" fill="#0D0D0D"/>
<path d="M98.9973 12.504C102.037 12.504 104.533 13.448 106.485 15.336C108.437 17.224 109.413 20.072 109.413 23.88V39H108.501V23.784C108.501 20.392 107.653 17.816 105.957 16.056C104.261 14.264 101.941 13.368 98.9973 13.368C95.9253 13.368 93.4613 14.376 91.6053 16.392C89.7493 18.376 88.8213 21.32 88.8213 25.224V39H87.8613V3.48H88.8213V19.896C89.4293 17.496 90.6453 15.672 92.4693 14.424C94.2933 13.144 96.4693 12.504 98.9973 12.504Z" fill="#0D0D0D"/>
<path d="M128.626 38.472C131.538 38.472 133.986 37.736 135.97 36.264C137.954 34.792 139.154 32.776 139.57 30.216H140.53C140.082 32.936 138.802 35.144 136.69 36.84C134.61 38.504 131.922 39.336 128.626 39.336C126.226 39.336 124.082 38.808 122.194 37.752C120.306 36.696 118.818 35.16 117.73 33.144C116.674 31.128 116.146 28.76 116.146 26.04C116.146 23.32 116.674 20.952 117.73 18.936C118.818 16.92 120.306 15.384 122.194 14.328C124.082 13.272 126.226 12.744 128.626 12.744C131.154 12.744 133.314 13.288 135.106 14.376C136.898 15.432 138.242 16.808 139.138 18.504C140.066 20.2 140.53 21.992 140.53 23.88C140.53 25.032 140.514 25.896 140.482 26.472H117.106C117.138 29.128 117.682 31.352 118.738 33.144C119.826 34.936 121.234 36.28 122.962 37.176C124.69 38.04 126.578 38.472 128.626 38.472ZM128.626 13.608C126.578 13.608 124.69 14.056 122.962 14.952C121.234 15.816 119.826 17.144 118.738 18.936C117.682 20.728 117.138 22.952 117.106 25.608H139.666C139.826 22.952 139.394 20.728 138.37 18.936C137.378 17.144 136.002 15.816 134.242 14.952C132.514 14.056 130.642 13.608 128.626 13.608Z" fill="#0D0D0D"/>
<path d="M148.446 19.368C149.47 14.792 152.878 12.504 158.67 12.504V13.56H158.238C155.518 13.56 153.198 14.36 151.278 15.96C149.39 17.528 148.446 20.072 148.446 23.592V39H147.486V13.08H148.446V19.368Z" fill="#0D0D0D"/>
<path d="M194.041 12.504C196.921 12.504 199.289 13.448 201.145 15.336C203.001 17.224 203.929 20.072 203.929 23.88V39H203.017V23.784C203.017 20.392 202.217 17.816 200.617 16.056C199.017 14.264 196.825 13.368 194.041 13.368C191.129 13.368 188.777 14.408 186.985 16.488C185.193 18.536 184.297 21.528 184.297 25.464V39H183.385V23.784C183.385 20.392 182.585 17.816 180.985 16.056C179.385 14.264 177.193 13.368 174.409 13.368C171.465 13.368 169.097 14.408 167.305 16.488C165.545 18.536 164.665 21.528 164.665 25.464V39H163.705V13.08H164.665V19.944C165.305 17.448 166.489 15.592 168.217 14.376C169.977 13.128 172.041 12.504 174.409 12.504C176.841 12.504 178.921 13.192 180.649 14.568C182.409 15.912 183.529 17.96 184.009 20.712C184.585 17.96 185.769 15.912 187.561 14.568C189.385 13.192 191.545 12.504 194.041 12.504Z" fill="#0D0D0D"/>
<path d="M223.126 38.472C226.038 38.472 228.486 37.736 230.47 36.264C232.454 34.792 233.654 32.776 234.07 30.216H235.03C234.582 32.936 233.302 35.144 231.19 36.84C229.11 38.504 226.422 39.336 223.126 39.336C220.726 39.336 218.582 38.808 216.694 37.752C214.806 36.696 213.318 35.16 212.23 33.144C211.174 31.128 210.646 28.76 210.646 26.04C210.646 23.32 211.174 20.952 212.23 18.936C213.318 16.92 214.806 15.384 216.694 14.328C218.582 13.272 220.726 12.744 223.126 12.744C225.654 12.744 227.814 13.288 229.606 14.376C231.398 15.432 232.742 16.808 233.638 18.504C234.566 20.2 235.03 21.992 235.03 23.88C235.03 25.032 235.014 25.896 234.982 26.472H211.606C211.638 29.128 212.182 31.352 213.238 33.144C214.326 34.936 215.734 36.28 217.462 37.176C219.19 38.04 221.078 38.472 223.126 38.472ZM223.126 13.608C221.078 13.608 219.19 14.056 217.462 14.952C215.734 15.816 214.326 17.144 213.238 18.936C212.182 20.728 211.638 22.952 211.606 25.608H234.166C234.326 22.952 233.894 20.728 232.87 18.936C231.878 17.144 230.502 15.816 228.742 14.952C227.014 14.056 225.142 13.608 223.126 13.608Z" fill="#0D0D0D"/>
<path d="M261.858 33.048H249.282L247.266 39H238.674L250.866 5.304H260.37L272.562 39H263.874L261.858 33.048ZM259.746 26.712L255.57 14.376L251.442 26.712H259.746Z" fill="#0D0D0D"/>
<path d="M284.481 3.48V39H276.273V3.48H284.481Z" fill="#0D0D0D"/>
<path d="M324.605 11.928C327.933 11.928 330.573 12.936 332.525 14.952C334.509 16.968 335.501 19.768 335.501 23.352V39H327.341V24.456C327.341 22.728 326.877 21.4 325.949 20.472C325.053 19.512 323.805 19.032 322.205 19.032C320.605 19.032 319.341 19.512 318.413 20.472C317.517 21.4 317.069 22.728 317.069 24.456V39H308.909V24.456C308.909 22.728 308.445 21.4 307.517 20.472C306.621 19.512 305.373 19.032 303.773 19.032C302.173 19.032 300.909 19.512 299.981 20.472C299.085 21.4 298.637 22.728 298.637 24.456V39H290.429V12.216H298.637V15.576C299.469 14.456 300.557 13.576 301.901 12.936C303.245 12.264 304.765 11.928 306.461 11.928C308.477 11.928 310.269 12.36 311.837 13.224C313.437 14.088 314.685 15.32 315.581 16.92C316.509 15.448 317.773 14.248 319.373 13.32C320.973 12.392 322.717 11.928 324.605 11.928Z" fill="#0D0D0D"/>
<path d="M366.49 25.176C366.49 25.944 366.442 26.744 366.346 27.576H347.77C347.898 29.24 348.426 30.52 349.354 31.416C350.314 32.28 351.482 32.712 352.858 32.712C354.906 32.712 356.33 31.848 357.13 30.12H365.866C365.418 31.88 364.602 33.464 363.418 34.872C362.266 36.28 360.81 37.384 359.05 38.184C357.29 38.984 355.322 39.384 353.146 39.384C350.522 39.384 348.186 38.824 346.138 37.704C344.09 36.584 342.49 34.984 341.338 32.904C340.186 30.824 339.61 28.392 339.61 25.608C339.61 22.824 340.17 20.392 341.29 18.312C342.442 16.232 344.042 14.632 346.09 13.512C348.138 12.392 350.49 11.832 353.146 11.832C355.738 11.832 358.042 12.376 360.058 13.464C362.074 14.552 363.642 16.104 364.762 18.12C365.914 20.136 366.49 22.488 366.49 25.176ZM358.09 23.016C358.09 21.608 357.61 20.488 356.65 19.656C355.69 18.824 354.49 18.408 353.05 18.408C351.674 18.408 350.506 18.808 349.546 19.608C348.618 20.408 348.042 21.544 347.818 23.016H358.09Z" fill="#0D0D0D"/>
<path d="M374.948 9.432C373.508 9.432 372.324 9.016 371.396 8.184C370.5 7.32 370.052 6.264 370.052 5.016C370.052 3.736 370.5 2.68 371.396 1.848C372.324 0.984002 373.508 0.552002 374.948 0.552002C376.356 0.552002 377.508 0.984002 378.404 1.848C379.332 2.68 379.796 3.736 379.796 5.016C379.796 6.264 379.332 7.32 378.404 8.184C377.508 9.016 376.356 9.432 374.948 9.432ZM379.028 12.216V39H370.82V12.216H379.028Z" fill="#0D0D0D"/>
<path d="M383.344 25.56C383.344 22.808 383.856 20.392 384.88 18.312C385.936 16.232 387.36 14.632 389.152 13.512C390.944 12.392 392.944 11.832 395.152 11.832C396.912 11.832 398.512 12.2 399.952 12.936C401.424 13.672 402.576 14.664 403.408 15.912V3.48H411.616V39H403.408V35.16C402.64 36.44 401.536 37.464 400.096 38.232C398.688 39 397.04 39.384 395.152 39.384C392.944 39.384 390.944 38.824 389.152 37.704C387.36 36.552 385.936 34.936 384.88 32.856C383.856 30.744 383.344 28.312 383.344 25.56ZM403.408 25.608C403.408 23.56 402.832 21.944 401.68 20.76C400.56 19.576 399.184 18.984 397.552 18.984C395.92 18.984 394.528 19.576 393.376 20.76C392.256 21.912 391.696 23.512 391.696 25.56C391.696 27.608 392.256 29.24 393.376 30.456C394.528 31.64 395.92 32.232 397.552 32.232C399.184 32.232 400.56 31.64 401.68 30.456C402.832 29.272 403.408 27.656 403.408 25.608Z" fill="#0D0D0D"/>
<path d="M415.922 25.56C415.922 22.808 416.434 20.392 417.458 18.312C418.514 16.232 419.938 14.632 421.73 13.512C423.522 12.392 425.522 11.832 427.73 11.832C429.618 11.832 431.266 12.216 432.674 12.984C434.114 13.752 435.218 14.76 435.986 16.008V12.216H444.194V39H435.986V35.208C435.186 36.456 434.066 37.464 432.626 38.232C431.218 39 429.57 39.384 427.682 39.384C425.506 39.384 423.522 38.824 421.73 37.704C419.938 36.552 418.514 34.936 417.458 32.856C416.434 30.744 415.922 28.312 415.922 25.56ZM435.986 25.608C435.986 23.56 435.41 21.944 434.258 20.76C433.138 19.576 431.762 18.984 430.13 18.984C428.498 18.984 427.106 19.576 425.954 20.76C424.834 21.912 424.274 23.512 424.274 25.56C424.274 27.608 424.834 29.24 425.954 30.456C427.106 31.64 428.498 32.232 430.13 32.232C431.762 32.232 433.138 31.64 434.258 30.456C435.41 29.272 435.986 27.656 435.986 25.608Z" fill="#0D0D0D"/>
</svg>
